<svg width="144" height="32" viewBox="0 0 144 32" fill="none" xmlns="http://www.w3.org/2000/svg">
	<g clip-path="url(#clip0)">
		<path d="M11.2823 0H0C0 0 0 7.62544 0 8.587C0 20.327 7.73007 26.9909 12.5334 30.0098V8.7659H8.78011V21.8029C7.99817 21.065 3.77567 16.615 3.77567 8.27393V3.10832H13.8069L11.2823 0Z" fill="#4CCBFF"/>
		<path d="M21.3136 0H32.5959C32.5959 0 32.5959 7.62544 32.5959 8.587C32.5959 20.327 24.8658 26.9909 20.0625 30.0098V11.2928H23.8158V21.8253C24.5977 21.0874 28.8202 16.6373 28.8202 8.2963V3.13068H18.8113L21.3136 0Z" fill="#0092D6"/>
		<path d="M16.3091 32.0014C16.3091 32.0014 17.0464 31.7107 18.1858 31.107V6.28516H14.4101V31.1293C15.5718 31.7107 16.3091 32.0014 16.3091 32.0014Z" fill="#4CCBFF"/>
		<path d="M90.1355 13.6394V11.761C90.1355 9.79318 88.8173 8.76453 86.9407 8.76453H81.333V10.4864H82.9863L81.4671 12.4095V21.5109H83.4778V10.4864H86.5385C87.6556 10.4864 88.1694 10.9784 88.1694 12.1635V13.3264C88.1694 14.5116 87.6556 15.0035 86.5385 15.0035H84.8629L88.1024 21.4885H90.2248L87.7673 16.5689C89.1971 16.3229 90.1355 15.2942 90.1355 13.6394ZM129.612 8.76453H127.468C125.569 8.76453 124.273 9.81554 124.273 11.761V18.492C124.273 20.4598 125.591 21.4885 127.468 21.4885H129.612C131.511 21.4885 132.807 20.4375 132.807 18.492V17.1055H130.797V18.0895C130.797 19.2747 130.283 19.7666 129.166 19.7666H127.87C126.753 19.7666 126.239 19.2747 126.239 18.0895V12.1859C126.239 11.0007 126.753 10.5088 127.87 10.5088H129.166C130.283 10.5088 130.797 11.0007 130.797 12.1859V12.5437H132.807V11.761C132.83 9.81554 131.511 8.76453 129.612 8.76453ZM110.98 8.76453H105.238V10.4864H106.891L105.372 12.4095V21.5109H110.98C112.879 21.5109 114.175 20.4598 114.175 18.5143V11.761C114.175 9.81554 112.879 8.76453 110.98 8.76453ZM112.164 18.0895C112.164 19.2747 111.65 19.7666 110.533 19.7666H107.361V10.4864H110.533C111.65 10.4864 112.164 10.9784 112.164 12.1635V18.0895ZM118.107 10.4864H119.76L118.241 12.4095V21.5109H120.251V8.76453H118.129V10.4864H118.107ZM93.7771 10.4864H95.4304L93.9111 12.4095V21.5109H101.574V19.7666H95.8995V15.8309H101.239V14.1761H95.8995V10.4864H101.574V8.74216H93.7771V10.4864ZM135.332 8.76453V10.4864H140.18L138.661 12.4095V21.5109H140.671V10.4864H144V8.74216H135.332V8.76453ZM62.5109 8.7869H60.2767C58.3777 8.7869 57.0819 9.83792 57.0819 11.7834V18.5144C57.0819 20.4822 58.4001 21.5109 60.2767 21.5109H62.5109C64.4099 21.5109 65.7057 20.4599 65.7057 18.5144V14.8917H61.8853V16.5465H63.695V18.1118C63.695 19.297 63.1811 19.789 62.064 19.789H60.6789C59.5618 19.789 59.048 19.297 59.048 18.1118V12.2083C59.048 11.0231 59.5618 10.5311 60.6789 10.5311H62.064C63.1811 10.5311 63.695 11.0231 63.695 12.2083V12.5661H65.7057V11.7834C65.7057 9.83792 64.3875 8.7869 62.5109 8.7869ZM50.7817 8.7869H48.5476C46.6486 8.7869 45.3528 9.83792 45.3528 11.7834V18.5144C45.3528 20.4822 46.6709 21.5109 48.5476 21.5109H50.7817C52.6807 21.5109 53.9765 20.4599 53.9765 18.5144V14.8917H50.3572V16.5241H51.9881V18.1118C51.9881 19.297 51.4743 19.789 50.3572 19.789H48.9721C47.855 19.789 47.3412 19.297 47.3412 18.1118V12.2083C47.3412 11.0231 47.855 10.5311 48.9721 10.5311H50.3572C51.4743 10.5311 51.9881 11.0231 51.9881 12.2083V12.5661H53.9988V11.7834C53.9765 9.83792 52.6584 8.7869 50.7817 8.7869ZM75.0551 8.76453H69.4475V10.4864H71.1007L69.5815 12.4095V21.5109H71.5922V16.8819H74.9881C76.8871 16.8819 78.2723 15.8756 78.2723 13.7736V11.761C78.2499 9.81554 76.9541 8.76453 75.0551 8.76453ZM76.2615 13.4829C76.2615 14.6681 75.7477 15.1601 74.6306 15.1601H71.5699V10.4864H74.6306C75.7477 10.4864 76.2615 10.9784 76.2615 12.1635V13.4829Z" fill="#ECECEC"/>
	</g>
	<defs>
		<clipPath id="clip0">
			<rect width="144" height="32" fill="white"/>
		</clipPath>
	</defs>
</svg>
