<svg width="33" height="32" viewBox="0 0 33 32" fill="none" xmlns="http://www.w3.org/2000/svg"><path d="M11.282 0H0v8.587c0 11.74 7.73 18.404 12.533 21.423V8.766H8.78v13.037c-.782-.738-5.004-5.188-5.004-13.53V3.109h10.03L11.283 0z" fill="#FFF"/><path d="M21.314 0h11.282v8.587c0 11.74-7.73 18.404-12.533 21.423V11.293h3.753v10.532c.782-.738 5.004-5.188 5.004-13.529V3.131H18.811L21.314 0z" fill="#FFF"/><path d="M16.31 32s.736-.29 1.876-.895V6.284H14.41v24.844c1.162.581 1.9.872 1.9.872z" fill="#FFF"/></svg>